# xmcd
#
# Track frame offsets: 
#        150
#        17049
#        32139
#        49946
#        71178
#        88435
#        105063
#        120123
#        142002
#        161440
#        174766
#        187946
#        202205
#
# Disc length: 2867 seconds
#
# Revision: 0
# Processed by: cddbd v1.5.2PL0 Copyright (c) Steve Scherf et al.
# Submitted via: ExactAudioCopy v0.99pb5
#
DISCID=ab0b310d
DTITLE=Blue Cotton - Nublooze
DYEAR=2006
DGENRE=Blues
TTITLE0=Black Corn Liquior
TTITLE1=Life Is Your Hands
TTITLE2=Guiding Light
TTITLE3=Who Needs Us
TTITLE4=My Baby
TTITLE5=Love Hurts
TTITLE6=Got Good Whiskey
TTITLE7=What's Going On
TTITLE8=Hartselle City Jail
TTITLE9=The Hitchhiker
TTITLE10=Blue Cotton
TTITLE11=A Mile Away
TTITLE12=Cell Phone
EXTD=
EXTT0=
EXTT1=
EXTT2=
EXTT3=
EXTT4=
EXTT5=
EXTT6=
EXTT7=
EXTT8=
EXTT9=
EXTT10=
EXTT11=
EXTT12=
PLAYORDER=
